<svg xmlns="http://www.w3.org/2000/svg" viewBox="0 0 80 75"><path d="M26.44 47.9l1.58 1.54L67.67 8.52l-1.59-1.54L26.44 47.9zm52.68 16.04a3.11 3.11 0 0 0-4.29-.1l-11.26-11.3a7.29 7.29 0 0 0-.1-10.06l-.77-.78-2.81 2.82-8.41-8.71 23.12-23.2V0H63.14L40.06 23.93 17 0H5.18v12.61l23.32 23.3-8.35 8.65-2.85-2.86-.77.77a7.3 7.3 0 0 0-.1 10.06L5.17 63.84a3.12 3.12 0 0 0-4.29 4.52l5.73 5.75a3.07 3.07 0 0 0 2.2.88 3.07 3.07 0 0 0 2.2-.88 3.15 3.15 0 0 0 0-4.42L22.26 58.4a7.25 7.25 0 0 0 5 2 7.06 7.06 0 0 0 5.07-2.1l.77-.77-1.6-1.6 8.44-8.48L48.46 56l-1.51 1.52.77.77a7.16 7.16 0 0 0 10.08.05L69 69.63v.06a3.15 3.15 0 0 0 0 4.42 3.19 3.19 0 0 0 4.41 0l5.73-5.75a3.22 3.22 0 0 0-.02-4.42zM62 54.09l1.54 1.55v5.42l-4.2-4.26zm3.75 3.76L68 60.07v5.42l-2.2-2.21v-5.43zM7.38 11.73V2.21H16l22.56 23.3-3.32 3.44L13.94 7l-1.58 1.54 21.32 22-3.68 3.8zm8.82 44.13l1.8-1.77 2.75 2.77-4.55 4.53v-5.53zM14 63.61l-2.2 2.21v-5.53l2.2-2.21v5.53zM9.59 62.5V68l-.11.11-2.76-2.73zm-.11 10a1 1 0 0 1-1.32 0l-5.74-5.8a1.58 1.58 0 0 1-.22-.7.81.81 0 0 1 .22-.66 1.56 1.56 0 0 1 .66-.22 1.38 1.38 0 0 1 .59.19l5.84 5.86a1 1 0 0 1-.03 1.29zm17.74-14.31a5.09 5.09 0 0 1-3.53-1.44l-5.62-5.64a5 5 0 0 1-.66-6.19l12.45 12.5a4.38 4.38 0 0 1-2.64.77zM21.7 46.12L64 2.21h8.4v9.51L29.92 54.37zm19.77-.24l3.63-3.65 7 7.23 1.58-1.54-7-7.25 3.27-3.29 8.41 8.71L50 54.44zm11.31 12.31a5.29 5.29 0 0 1-2.64-.77l12.45-12.5a5 5 0 0 1-.66 6.19l-5.62 5.64a5.3 5.3 0 0 1-3.53 1.44zm17.41 9.51v-5.42l3.09 3.1-2.7 2.71zm7.49-1L72 72.46a1 1 0 0 1-1.32 0 1 1 0 0 1 0-1.26l5.73-5.86a1.1 1.1 0 0 1 1.32 0 1.58 1.58 0 0 1 .22.66.81.81 0 0 1-.26.7z"/></svg>